<svg
    width="83"
    height="43"
    viewBox="0 0 83 43"
    fill="none"
    xmlns="http://www.w3.org/2000/svg"
>
    <path
        d="M1.76931 18.3484C1.94832 17.6682 2.12734 17.1401 2.30635 16.7642C2.50326 16.3704 2.67332 16.075 2.81653 15.8781C3.01345 15.6454 3.20141 15.5022 3.38042 15.4484C3.34462 15.6991 3.28196 16.1645 3.19246 16.8447C3.10295 17.5071 3.01345 18.2947 2.92394 19.2077C2.83443 20.1207 2.73598 21.1142 2.62857 22.1883C2.53906 23.2623 2.46746 24.3274 2.41376 25.3836C2.62857 25.1151 2.87024 24.8466 3.13875 24.5781C3.42517 24.3095 3.72054 24.0589 4.02486 23.8262C4.34709 23.5935 4.67826 23.4055 5.01838 23.2623C5.37641 23.1191 5.73443 23.0475 6.09245 23.0475C6.46838 23.0654 6.71005 23.3071 6.81745 23.7725C6.94276 24.2379 7.00542 24.8287 7.00542 25.5447C7.00542 26.2429 6.96066 27.0037 6.87116 27.8271C6.79955 28.6327 6.74585 29.3845 6.71005 30.0827C6.69214 30.7629 6.719 31.3358 6.7906 31.8012C6.88011 32.2666 7.08597 32.4994 7.40819 32.4994C7.4619 32.4994 7.54245 32.4814 7.64986 32.4456C7.38134 32.8037 7.15758 33.0901 6.97856 33.3049C6.81745 33.5018 6.66529 33.654 6.52208 33.7614C6.39677 33.8688 6.27147 33.9404 6.14616 33.9762C6.02085 33.9941 5.87764 34.0031 5.71653 34.0031C5.3227 34.0031 5.04523 33.7793 4.88412 33.3318C4.74091 32.8663 4.65141 32.2935 4.6156 31.6132C4.5977 30.933 4.60665 30.1901 4.64246 29.3845C4.67826 28.579 4.70511 27.8361 4.72301 27.1558C4.74091 26.4756 4.71406 25.9117 4.64246 25.4642C4.57085 24.9987 4.40079 24.766 4.13227 24.766C3.95326 24.766 3.72054 24.8913 3.43412 25.142C3.14771 25.3747 2.79863 25.7774 2.3869 26.3503C2.3511 27.1737 2.3332 27.9614 2.3332 28.7132C2.3332 29.4472 2.36005 30.1006 2.41376 30.6734C2.46746 31.2284 2.55697 31.6669 2.68227 31.9892C2.80758 32.3114 2.96869 32.4725 3.16561 32.4725C3.20141 32.4725 3.23721 32.4635 3.27301 32.4456C3.0045 32.8037 2.78073 33.0901 2.60172 33.3049C2.44061 33.5018 2.28845 33.654 2.14524 33.7614C2.01993 33.8688 1.89462 33.9404 1.76931 33.9762C1.644 33.9941 1.50079 34.0031 1.33968 34.0031C1.03536 34.0031 0.820548 33.6629 0.695239 32.9827C0.569931 32.2845 0.507277 31.4074 0.507277 30.3512C0.525178 29.2771 0.587832 28.1046 0.695239 26.8336C0.802647 25.5626 0.919004 24.3453 1.04431 23.1818C1.18752 22.0182 1.32178 20.9978 1.44709 20.1207C1.5903 19.2256 1.69771 18.6349 1.76931 18.3484ZM8.20976 30.0021C8.24556 29.4472 8.45143 28.8565 8.82735 28.2299C9.20328 27.6034 9.65976 26.9947 10.1968 26.404C10.7517 25.8132 11.3514 25.2673 11.9959 24.766C12.6403 24.2648 13.24 23.8531 13.7949 23.5308C13.9202 23.2623 14.0456 23.0386 14.1709 22.8595C14.2962 22.6626 14.4215 22.4926 14.5468 22.3494C14.6721 22.2062 14.8064 22.0898 14.9496 22.0003C14.681 23.7188 14.5378 25.1867 14.5199 26.404C14.5199 27.6213 14.6005 28.6148 14.7616 29.3845C14.9227 30.1543 15.1375 30.7182 15.406 31.0762C15.6925 31.4342 15.9878 31.6132 16.2922 31.6132C16.4712 31.6132 16.6412 31.5595 16.8023 31.4521C16.9097 31.6669 16.9456 31.8907 16.9097 32.1234C16.8739 32.3561 16.7844 32.571 16.6412 32.7679C16.498 32.9648 16.319 33.1348 16.1042 33.2781C15.8894 33.4034 15.6477 33.466 15.3792 33.466C14.878 33.466 14.4662 33.2781 14.144 32.9021C13.8397 32.5083 13.6159 32.0966 13.4727 31.6669C13.1147 31.9355 12.6672 32.1861 12.1301 32.4188C11.611 32.6336 11.1008 32.7589 10.5996 32.7947H10.4922C10.2236 32.7947 9.94618 32.7321 9.65976 32.6068C9.39124 32.4635 9.14062 32.2756 8.90791 32.0429C8.69309 31.7923 8.51408 31.4969 8.37087 31.1568C8.24556 30.8166 8.19186 30.4318 8.20976 30.0021ZM9.5792 30.6466C9.5792 30.7898 9.62396 30.9151 9.71346 31.0225C9.80297 31.112 9.91933 31.1568 10.0625 31.1568C10.4385 31.1568 10.9218 30.9688 11.5125 30.5929C12.1033 30.2169 12.6672 29.7694 13.2042 29.2503C13.2042 28.8207 13.2131 28.4 13.2311 27.9882C13.249 27.5586 13.2758 27.1558 13.3116 26.7799C13.24 26.6725 13.1236 26.6188 12.9625 26.6188C12.694 26.6188 12.3628 26.7978 11.969 27.1558C11.5931 27.496 11.2261 27.8987 10.8681 28.3642C10.5101 28.8117 10.2057 29.2592 9.95513 29.7068C9.70451 30.1364 9.5792 30.4497 9.5792 30.6466ZM8.93476 21.3827L10.1431 20.0133C10.1789 20.0849 10.2415 20.1833 10.3311 20.3086C10.4206 20.4339 10.528 20.5682 10.6533 20.7114C10.7786 20.8367 10.9039 20.971 11.0292 21.1142C11.1724 21.2395 11.2977 21.3469 11.4051 21.4364C11.423 21.4543 11.3693 21.5349 11.244 21.6781C11.1366 21.8213 11.0023 21.9824 10.8412 22.1614C10.698 22.3404 10.5548 22.5105 10.4116 22.6716C10.2863 22.8327 10.2057 22.9491 10.1699 23.0207C10.0446 22.9133 9.91038 22.77 9.76717 22.591C9.65976 22.4478 9.5255 22.2778 9.36439 22.0808C9.22118 21.8839 9.07797 21.6512 8.93476 21.3827ZM19.5977 15.2068C19.347 17.7667 19.1322 20.0849 18.9532 22.1614C18.7742 24.22 18.7653 25.9833 18.9264 27.4512C19.0875 28.9012 19.4813 30.02 20.1078 30.8077C20.7344 31.5953 21.7189 31.9892 23.0615 31.9892C23.9029 31.9892 24.9591 31.8102 26.2301 31.4521C25.7109 32.2398 25.0128 32.8574 24.1356 33.3049C23.2764 33.7345 22.4171 33.9493 21.5578 33.9493C21.0208 33.9493 20.5106 33.8598 20.0273 33.6808C19.544 33.4839 19.1233 33.1885 18.7653 32.7947C18.2998 32.2577 17.9328 31.6132 17.6643 30.8614C17.3958 30.0916 17.2078 29.2682 17.1004 28.391C17.0109 27.5139 16.9751 26.6099 16.993 25.679C17.0288 24.7481 17.1004 23.8531 17.2078 22.9938C17.3153 22.1166 17.4406 21.3111 17.5838 20.5771C17.7449 19.8253 17.897 19.1988 18.0403 18.6975C18.2193 18.0889 18.3983 17.5697 18.5773 17.1401C18.7563 16.7105 18.9174 16.3525 19.0606 16.066C19.2396 15.7259 19.4186 15.4395 19.5977 15.2068ZM25.9292 30.0558C26.0366 29.304 26.341 28.4895 26.8422 27.6123C27.3434 26.7173 28.1042 25.7864 29.1246 24.8197C29.1425 24.6765 29.1783 24.4975 29.232 24.2827C29.3036 24.0679 29.3842 23.871 29.4737 23.692C29.5632 23.495 29.6527 23.3339 29.7422 23.2086C29.8496 23.0654 29.9481 22.9938 30.0376 22.9938C30.0913 22.9938 30.1271 23.0117 30.145 23.0475C30.4493 23.4234 30.7984 23.8531 31.1922 24.3364C31.586 24.8197 31.953 25.3568 32.2931 25.9475C32.6511 26.5382 32.9465 27.1737 33.1792 27.854C33.4119 28.5342 33.5104 29.2682 33.4746 30.0558C33.4567 30.575 33.3314 31.0583 33.0987 31.5058C32.8838 31.9355 32.5974 32.3114 32.2394 32.6336C31.8993 32.9558 31.4965 33.2154 31.0311 33.4123C30.5835 33.5913 30.1002 33.6808 29.5811 33.6808C29.1335 33.6808 28.6771 33.5824 28.2116 33.3855C27.7462 33.1706 27.3345 32.8932 26.9765 32.5531C26.6184 32.2129 26.341 31.8281 26.144 31.3984C25.9292 30.9509 25.8576 30.5034 25.9292 30.0558ZM29.5811 31.6132C30.0644 31.5237 30.503 31.3805 30.8968 31.1836C31.3085 30.9688 31.6487 30.745 31.9172 30.5123C32.1857 30.2617 32.3826 30.029 32.5079 29.8142C32.6332 29.5994 32.669 29.4382 32.6153 29.3308C32.3289 28.6685 31.9888 28.0957 31.595 27.6123C31.2011 27.1111 30.7536 26.6278 30.2524 26.1623C30.2166 26.1981 30.145 26.2518 30.0376 26.3234C29.8585 26.4308 29.6169 26.6278 29.3126 26.9142C29.0082 27.1827 28.695 27.496 28.3727 27.854C28.0684 28.1941 27.782 28.5432 27.5135 28.9012C27.2629 29.2592 27.0928 29.5636 27.0033 29.8142C26.9496 29.9395 26.9944 30.1095 27.1376 30.3244C27.2987 30.5213 27.4956 30.7182 27.7283 30.9151C27.9789 31.112 28.2474 31.2821 28.5339 31.4253C28.8382 31.5685 29.1246 31.6401 29.3931 31.6401C29.4289 31.6401 29.4558 31.6401 29.4737 31.6401C29.5095 31.6222 29.5453 31.6132 29.5811 31.6132ZM36.9569 15.2068C36.7063 17.7667 36.4915 20.0849 36.3125 22.1614C36.1335 24.22 36.1245 25.9833 36.2856 27.4512C36.4468 28.9012 36.8406 30.02 37.4671 30.8077C38.0937 31.5953 39.0782 31.9892 40.4208 31.9892C41.2622 31.9892 42.3183 31.8102 43.5893 31.4521C43.0702 32.2398 42.3721 32.8574 41.4949 33.3049C40.6356 33.7345 39.7764 33.9493 38.9171 33.9493C38.3801 33.9493 37.8699 33.8598 37.3866 33.6808C36.9032 33.4839 36.4826 33.1885 36.1245 32.7947C35.6591 32.2577 35.2921 31.6132 35.0236 30.8614C34.7551 30.0916 34.5671 29.2682 34.4597 28.391C34.3702 27.5139 34.3344 26.6099 34.3523 25.679C34.3881 24.7481 34.4597 23.8531 34.5671 22.9938C34.6745 22.1166 34.7998 21.3111 34.9431 20.5771C35.1042 19.8253 35.2563 19.1988 35.3995 18.6975C35.5785 18.0889 35.7576 17.5697 35.9366 17.1401C36.1156 16.7105 36.2767 16.3525 36.4199 16.066C36.5989 15.7259 36.7779 15.4395 36.9569 15.2068ZM46.0274 31.6938C46.0632 31.7654 46.1258 31.8639 46.2154 31.9892C46.3049 32.1145 46.4123 32.2487 46.5376 32.3919C46.6629 32.5173 46.7882 32.6515 46.9135 32.7947C47.0567 32.92 47.182 33.0274 47.2894 33.1169C47.3073 33.1348 47.2536 33.2154 47.1283 33.3586C47.0209 33.5018 46.8867 33.6629 46.7255 33.8419C46.5823 34.021 46.4391 34.191 46.2959 34.3521C46.1706 34.5132 46.09 34.6296 46.0542 34.7012C45.9289 34.5938 45.7947 34.4595 45.6515 34.2984C45.5441 34.1552 45.4098 33.9852 45.2487 33.7882C45.1055 33.5734 44.9623 33.3318 44.8191 33.0632L46.0274 31.6938ZM49.1831 26.0012C49.3263 25.5358 49.5411 25.0524 49.8276 24.5512C50.114 24.0321 50.3825 23.5935 50.6331 23.2355C50.7047 23.1102 50.7763 23.0028 50.8479 22.9133C50.9195 22.8058 51.0001 22.7074 51.0896 22.6179C51.1075 22.5821 51.1164 22.5642 51.1164 22.5642C51.4566 22.2778 51.8056 22.1345 52.1637 22.1345C52.5754 22.1345 52.9513 22.3494 53.2914 22.779C53.6495 23.1907 53.8732 23.862 53.9627 24.7929C53.9448 24.7571 53.8643 24.7213 53.7211 24.6855C53.5779 24.6497 53.3988 24.6139 53.184 24.5781C52.9692 24.5423 52.7275 24.5154 52.459 24.4975C52.1905 24.4617 51.922 24.4438 51.6535 24.4438C51.5103 24.4438 51.3671 24.4438 51.2238 24.4438C51.0985 24.4438 50.9732 24.4617 50.8479 24.4975C50.7226 25.4821 50.6421 26.4398 50.6063 27.3707C50.5884 28.2836 50.66 29.0892 50.8211 29.7873C50.9822 30.4855 51.2596 31.0494 51.6535 31.479C52.0473 31.8907 52.6022 32.0966 53.3183 32.0966C53.73 32.0966 54.1775 32.025 54.6609 31.8818C55.1621 31.7385 55.726 31.5148 56.3525 31.2105C56.2093 31.6222 55.9856 31.9892 55.6812 32.3114C55.3948 32.6157 55.0547 32.8753 54.6609 33.0901C54.285 33.287 53.8732 33.4392 53.4257 33.5466C52.9961 33.654 52.5664 33.7077 52.1368 33.7077C51.6177 33.7077 51.1164 33.6182 50.6331 33.4392C50.1677 33.2602 49.7649 32.9558 49.4248 32.5262C49.0847 32.0787 48.8519 31.5774 48.7266 31.0225C48.6013 30.4676 48.5476 29.9037 48.5655 29.3308C48.6013 28.7401 48.6729 28.1583 48.7803 27.5855C48.9056 27.0126 49.0399 26.4845 49.1831 26.0012ZM56.4329 30.0021C56.4687 29.4472 56.6746 28.8565 57.0505 28.2299C57.4264 27.6034 57.8829 26.9947 58.4199 26.404C58.9749 25.8132 59.5746 25.2673 60.219 24.766C60.8634 24.2648 61.4631 23.8531 62.0181 23.5308C62.1434 23.2623 62.2687 23.0386 62.394 22.8595C62.5193 22.6626 62.6446 22.4926 62.7699 22.3494C62.8952 22.2062 63.0295 22.0898 63.1727 22.0003C62.9042 23.7188 62.761 25.1867 62.7431 26.404C62.7431 27.6213 62.8236 28.6148 62.9847 29.3845C63.1458 30.1543 63.3607 30.7182 63.6292 31.0762C63.9156 31.4342 64.211 31.6132 64.5153 31.6132C64.6943 31.6132 64.8644 31.5595 65.0255 31.4521C65.1329 31.6669 65.1687 31.8907 65.1329 32.1234C65.0971 32.3561 65.0076 32.571 64.8644 32.7679C64.7211 32.9648 64.5421 33.1348 64.3273 33.2781C64.1125 33.4034 63.8708 33.466 63.6023 33.466C63.1011 33.466 62.6894 33.2781 62.3671 32.9021C62.0628 32.5083 61.8391 32.0966 61.6958 31.6669C61.3378 31.9355 60.8903 32.1861 60.3533 32.4188C59.8341 32.6336 59.3239 32.7589 58.8227 32.7947H58.7153C58.4468 32.7947 58.1693 32.7321 57.8829 32.6068C57.6144 32.4635 57.3638 32.2756 57.131 32.0429C56.9162 31.7923 56.7372 31.4969 56.594 31.1568C56.4687 30.8166 56.415 30.4318 56.4329 30.0021ZM57.8023 30.6466C57.8023 30.7898 57.8471 30.9151 57.9366 31.0225C58.0261 31.112 58.1425 31.1568 58.2857 31.1568C58.6616 31.1568 59.1449 30.9688 59.7357 30.5929C60.3264 30.2169 60.8903 29.7694 61.4273 29.2503C61.4273 28.8207 61.4363 28.4 61.4542 27.9882C61.4721 27.5586 61.4989 27.1558 61.5347 26.7799C61.4631 26.6725 61.3468 26.6188 61.1857 26.6188C60.9171 26.6188 60.586 26.7978 60.1921 27.1558C59.8162 27.496 59.4492 27.8987 59.0912 28.3642C58.7332 28.8117 58.4289 29.2592 58.1783 29.7068C57.9276 30.1364 57.8023 30.4497 57.8023 30.6466ZM57.1579 21.3827L58.3662 20.0133C58.402 20.0849 58.4647 20.1833 58.5542 20.3086C58.6437 20.4339 58.7511 20.5682 58.8764 20.7114C59.0017 20.8367 59.127 20.971 59.2523 21.1142C59.3955 21.2395 59.5208 21.3469 59.6283 21.4364C59.6462 21.4543 59.5925 21.5349 59.4671 21.6781C59.3597 21.8213 59.2255 21.9824 59.0644 22.1614C58.9212 22.3404 58.7779 22.5105 58.6347 22.6716C58.5094 22.8327 58.4289 22.9491 58.3931 23.0207C58.2678 22.9133 58.1335 22.77 57.9903 22.591C57.8829 22.4478 57.7486 22.2778 57.5875 22.0808C57.4443 21.8839 57.3011 21.6512 57.1579 21.3827ZM59.2551 34.7549C59.3267 35.274 59.5057 35.7126 59.7921 36.0706C60.0785 36.4287 60.4276 36.7151 60.8393 36.9299C61.2331 37.1447 61.6628 37.2969 62.1282 37.3864C62.5936 37.4938 63.0501 37.5475 63.4976 37.5475C64.2316 37.5475 64.8402 37.449 65.3236 37.2521C65.8427 37.0373 66.2276 36.5003 66.4782 35.641C66.7467 34.7818 66.9347 33.7524 67.0421 32.5531C67.1674 31.3537 67.239 30.0558 67.2569 28.6595C67.2927 27.2632 67.3374 25.9207 67.3912 24.6318C66.9973 24.6497 66.6125 24.6676 66.2365 24.6855C65.8785 24.6855 65.5473 24.6855 65.243 24.6855C64.9029 24.7034 64.5807 24.7123 64.2763 24.7123C64.3121 24.6228 64.4196 24.4886 64.5986 24.3095C64.7776 24.1305 64.9834 23.9515 65.2162 23.7725C65.4668 23.5756 65.7263 23.4145 65.9949 23.2892C66.2813 23.146 66.5319 23.0744 66.7467 23.0744H67.4717C67.5075 22.5015 67.5523 21.9645 67.606 21.4633C67.6776 20.9441 67.7581 20.4876 67.8476 20.0938C67.9192 19.6821 68.0445 19.2704 68.2236 18.8586C68.4026 18.4469 68.6353 18.071 68.9217 17.7309C69.2081 17.3728 69.5393 17.0864 69.9152 16.8716C70.2911 16.6568 70.7029 16.5494 71.1504 16.5494C71.5442 16.5494 71.8754 16.6299 72.1439 16.791C72.4303 16.9342 72.6631 17.1043 72.8421 17.3012C73.039 17.516 73.209 17.7577 73.3523 18.0262C73.3165 18.3126 73.1643 18.617 72.8958 18.9392C72.6273 19.2614 72.3408 19.5478 72.0365 19.7984C71.7322 20.0491 71.4637 20.2549 71.231 20.416C70.9982 20.5592 70.9087 20.6129 70.9624 20.5771C71.0699 20.4697 71.1594 20.2549 71.231 19.9327C71.3026 19.6105 71.3473 19.2704 71.3652 18.9123C71.401 18.5364 71.41 18.1873 71.3921 17.8651C71.3742 17.5429 71.3294 17.337 71.2578 17.2475C71.222 17.2117 71.1773 17.1938 71.1236 17.1938C70.9445 17.1938 70.685 17.3818 70.3449 17.7577C70.0047 18.1336 69.7452 18.7512 69.5661 19.6105C69.5303 20.1475 69.5124 20.7025 69.5124 21.2753C69.5124 21.8481 69.5124 22.4299 69.5124 23.0207C69.8884 23.0028 70.2553 22.9938 70.6134 22.9938C70.9714 22.9759 71.2936 22.958 71.58 22.9401C71.8844 22.9222 72.1439 22.9133 72.3587 22.9133C72.5736 22.8954 72.7078 22.8775 72.7615 22.8595C72.8689 22.8416 72.8779 22.9133 72.7884 23.0744C72.6989 23.2176 72.5557 23.3876 72.3587 23.5845C72.1618 23.7815 71.9291 23.9694 71.6606 24.1484C71.3921 24.3274 71.1325 24.4438 70.8819 24.4975C70.8103 24.5154 70.6492 24.5333 70.3986 24.5512C70.1658 24.5512 69.8705 24.5602 69.5124 24.5781C69.5124 25.7416 69.4945 26.9052 69.4587 28.0688C69.4229 29.2324 69.3245 30.3602 69.1634 31.4521C69.0202 32.5262 68.7874 33.5287 68.4652 34.4595C68.1609 35.4083 67.7223 36.2318 67.1495 36.9299C66.5945 37.6459 65.8875 38.2188 65.0282 38.6484C64.1689 39.078 63.1217 39.3108 61.8865 39.3466H61.7254C60.9378 39.3466 60.3023 39.1765 59.8189 38.8364C59.3356 38.4963 59.0044 38.0845 58.8254 37.6012C58.6285 37.1179 58.5748 36.6077 58.6643 36.0706C58.7359 35.5515 58.9328 35.1129 59.2551 34.7549ZM72.3531 27.7197C72.4426 26.7531 72.6484 26.0191 72.9707 25.5179C73.3108 24.9987 73.6688 24.6228 74.0447 24.3901C74.4744 24.1216 74.9488 23.9784 75.4679 23.9605C76.2913 23.9605 76.8731 24.22 77.2133 24.7392C77.5534 25.2404 77.7592 25.867 77.8308 26.6188C77.8846 27.1379 77.9025 27.6213 77.8846 28.0688C77.8846 28.4984 77.7861 28.8833 77.5892 29.2234C77.4102 29.5636 77.1058 29.85 76.6762 30.0827C76.2645 30.3154 75.6738 30.4944 74.904 30.6197C74.6713 30.6555 74.4565 30.6824 74.2596 30.7003C74.0805 30.7182 73.9105 30.7361 73.7494 30.754C73.8389 31.3268 74.0358 31.6848 74.3401 31.8281C74.6444 31.9534 75.083 32.016 75.6559 32.016C76.0139 32.016 76.3719 31.9892 76.7299 31.9355C77.1058 31.8818 77.446 31.7923 77.7503 31.6669C78.0546 31.5416 78.3052 31.3895 78.5021 31.2105C78.6991 31.0315 78.7886 30.8256 78.7707 30.5929C79.1645 31.1299 79.3345 31.6132 79.2808 32.0429C79.2271 32.4725 79.0392 32.8484 78.717 33.1706C78.3947 33.475 77.983 33.7077 77.4818 33.8688C76.9984 34.0299 76.5062 34.1105 76.0049 34.1105C75.5932 34.1105 75.1815 34.0478 74.7697 33.9225C74.358 33.7793 73.9731 33.5555 73.6151 33.2512C73.2213 32.9111 72.9259 32.5173 72.729 32.0697C72.5321 31.6043 72.3978 31.121 72.3262 30.6197C72.2546 30.1185 72.2278 29.6173 72.2457 29.116C72.2815 28.6148 72.3173 28.1494 72.3531 27.7197ZM76.8373 27.2901C76.8373 27.2543 76.7657 27.1916 76.6225 27.1021C76.4793 27.0126 76.2913 26.9231 76.0586 26.8336C75.8259 26.7262 75.5663 26.6278 75.2799 26.5382C75.0114 26.4487 74.7518 26.395 74.5012 26.3771C74.0537 27.6123 73.7852 28.6685 73.6957 29.5457C74.1074 29.3845 74.4923 29.2055 74.8503 29.0086C75.2262 28.8117 75.5574 28.6058 75.8438 28.391C76.1302 28.1762 76.3629 27.9703 76.542 27.7734C76.721 27.5765 76.8194 27.4154 76.8373 27.2901ZM74.2327 20.9262L75.441 19.5568L76.7031 20.9799C76.721 20.9978 76.6673 21.0784 76.542 21.2216C76.4346 21.3648 76.3003 21.5259 76.1392 21.7049C75.996 21.8839 75.8528 22.054 75.7096 22.2151C75.5842 22.3762 75.5037 22.4926 75.4679 22.5642C75.3426 22.4568 75.2083 22.3136 75.0651 22.1345C74.9577 21.9913 74.8234 21.8213 74.6623 21.6244C74.5191 21.4275 74.3759 21.1947 74.2327 20.9262Z"
        fill="#25012B"
    />
</svg>